<?xml version="1.0" encoding="utf-8"?>
<!-- Svg Vector Icons : http://www.onlinewebfonts.com/icon -->
<!DOCTYPE svg PUBLIC "-//W3C//DTD SVG 1.1//EN" "http://www.w3.org/Graphics/SVG/1.1/DTD/svg11.dtd">
<svg version="1.1" xmlns="http://www.w3.org/2000/svg" xmlns:xlink="http://www.w3.org/1999/xlink" x="0px" y="0px" viewBox="0 0 1000 1000" enable-background="new 0 0 1000 1000" xml:space="preserve">
<metadata> Svg Vector Icons : http://www.onlinewebfonts.com/icon </metadata>
<g><g transform="translate(0.000000,512.000000) scale(0.100000,-0.100000)"><path d="M2923,4972.7c-61.3-59.3-59.3-111,7.7-269.9c30.6-72.7,90-216.3,134-319.7l76.6-185.7l-168.5-225.9c-520.7-696.8-1127.5-1303.6-1824.3-1824.3l-224-168.5l-245,101.5c-134,57.4-277.6,116.8-319.7,134c-101.5,42.1-158.9,38.3-212.5-17.2c-53.6-51.7-63.2-135.9-21.1-193.3c15.3-19.1,172.3-95.7,348.4-170.4c375.2-157,327.3-84.2,388.6-583.9c103.4-821.2,103.4-1437.6,0-2258.8c-61.3-499.6-13.4-426.9-388.6-583.8c-176.1-74.6-333.1-151.2-348.4-170.4c-42.1-57.4-32.5-141.7,21.1-193.3c59.3-61.3,111-59.3,269.9,7.7c72.7,30.6,216.3,90,319.7,134l187.6,76.6l262.2-197.2C1874-2454.7,2425.3-3006,2944.1-3693.2l197.2-262.3l-76.6-187.6c-44-103.4-103.4-246.9-134-319.7c-67-158.9-68.9-210.6-7.7-269.9c51.7-53.6,135.9-63.2,193.3-21c19.1,15.3,95.7,172.3,170.4,350.3l135.9,321.6l189.5,32.5c442.2,72.7,811.6,99.6,1387.8,99.6c578.1,0,918.8-24.9,1378.3-99.6l199.1-32.5l135.9-321.6c74.7-178,151.2-335,170.4-350.3c57.4-42.1,141.6-32.5,193.3,21c61.3,59.3,59.3,111-7.7,269.9c-30.6,72.8-90,216.3-134,317.8l-76.6,187.6l202.9,262.3c585.8,761.9,991.6,1167.7,1753.5,1753.5l262.3,202.9l187.6-76.6c101.4-44,245-103.4,317.8-134c158.9-67,210.6-68.9,269.9-7.7c53.6,51.7,63.2,135.9,21.1,193.3c-15.3,19.1-172.3,95.7-350.3,170.4l-321.6,135.9l-32.5,218.2c-137.8,959.1-137.8,1745.8,0,2712.5l32.5,224l321.6,135.9c178,74.7,335,151.2,350.3,170.4c42.1,57.4,32.5,141.7-21.1,193.3c-59.3,61.3-111,59.3-269.9-7.6c-72.8-30.6-216.3-90-317.8-134l-187.6-76.6l-262.3,202.9C8059,2763.6,7643.6,3179,7061.7,3935.1l-202.9,262.3l76.6,187.6c44,101.5,103.4,245,134,317.8c67,158.9,68.9,210.6,7.7,269.9c-51.7,53.6-135.9,63.2-193.3,21.1c-19.1-15.3-95.7-172.3-170.4-350.3l-135.9-321.6l-227.8-32.5c-983.9-137.8-1726.7-137.8-2701,1.9l-225.9,30.6l-135.9,323.5c-74.7,176.1-151.2,333.1-170.4,348.4C3058.9,5035.8,2974.7,5026.3,2923,4972.7z M3975.9,3939c804-90,1280.6-88,2122.9,9.6c178,21.1,327.3,36.4,331.2,32.5c3.8-3.8-47.9-134-112.9-289.1c-91.9-222.1-128.3-287.1-162.7-300.5c-155-57.4-798.3-132.1-1154.3-132.1c-352.2,0-1003.1,74.7-1154.3,132.1c-40.2,15.3-141.7,227.8-277.6,574.3c-7.7,21,7.7,23,74.7,13.4C3688.7,3973.4,3840,3954.3,3975.9,3939z M3405.4,3563.8l118.7-289.1l-112.9-166.5c-371.4-541.8-859.5-1029.9-1399.3-1399.3l-166.5-112.9l-289.1,118.7c-158.9,65.1-287.1,124.4-283.3,130.2c1.9,7.6,90,78.5,195.3,160.8c624.1,484.3,1169.6,1028,1629,1625.2c93.8,122.5,174.2,222.1,179.9,222.1C3282.9,3852.8,3340.3,3722.7,3405.4,3563.8z M6858.7,3695.8c526.4-681.5,966.7-1125.6,1621.4-1642.4c137.8-109.1,252.7-204.8,252.7-210.6c0-5.7-130.2-63.2-289-128.3l-289.1-118.7l-170.4,114.9c-526.4,354.1-1039.5,867.2-1393.6,1393.6l-114.9,170.4l118.7,289.1c65.1,158.9,124.4,289.1,130.2,289.1C6730.5,3852.8,6791.7,3782,6858.7,3695.8z M4287.9,2999.1c467.1-63.2,1085.4-55.5,1571.6,23c99.5,15.3,181.9,24.9,183.8,22.9c1.9-3.8-47.9-132.1-112.9-287.1l-116.8-279.5l-112.9-30.6c-423-118.7-805.9-132.1-1217.5-42.1c-291,63.2-300.5,67-312,103.4c-5.8,19.1-57.4,147.4-116.8,289.1l-107.2,254.6l68.9-11.5C4052.4,3033.5,4176.9,3014.4,4287.9,2999.1z M3790.2,2635.4l114.9-279.5l-55.5-93.8c-262.2-446-545.6-729.3-991.6-991.6l-93.8-55.5l-279.5,114.9c-153.1,65.1-279.5,122.5-279.5,128.3c0,5.7,32.5,32.5,70.8,59.3c402,269.9,932.2,788.7,1244.3,1217.5c70.8,97.6,135.9,178,141.7,179.9C3667.7,2914.8,3725.1,2788.5,3790.2,2635.4z M6445.3,2777c292.9-415.4,827-945.6,1244.3-1234.7c57.4-40.2,103.4-78.5,105.3-84.2c0-5.7-126.3-63.2-279.5-128.3l-279.5-116.8l-147.4,88c-413.5,250.8-673.8,515-926.5,936.1L6093,2352l116.8,281.4c65.1,155.1,122.5,281.4,128.3,281.4C6343.8,2912.9,6393.6,2851.7,6445.3,2777z M4531,2078.3c218.2-44,710.2-44,936.1,0c91.9,19.1,172.3,30.6,178,24.9c3.8-3.8-42.1-130.2-105.3-279.5c-124.4-300.5-122.5-298.6-327.4-363.7c-145.5-45.9-266.1-47.9-405.8-7.6c-220.1,65.1-227.8,72.7-336.9,344.6c-128.3,313.9-128.3,313.9-109.1,313.9C4370.2,2110.8,4446.8,2097.4,4531,2078.3z M4175,1708.8l112.9-277.6l-34.5-90c-51.7-137.8-124.4-252.7-204.8-321.6c-82.3-72.7-294.8-178-356-176.1c-34.5,0-541.7,201-562.8,222.1c-3.8,1.9,70.8,55.5,162.7,118.7c212.5,143.6,499.6,430.7,643.2,643.2c63.2,91.9,116.8,164.6,120.6,162.7C4058.2,1986.4,4111.8,1860.1,4175,1708.8z M6073.9,1814.1c135.9-201,426.9-490,633.6-631.7c91.9-61.3,166.6-114.9,162.7-116.8c-1.9-1.9-130.2-55.5-285.2-120.6c-275.6-114.9-281.4-116.8-356-90c-241.2,86.1-407.8,250.8-490.1,486.2l-30.6,82.3l118.7,287.1c63.2,157,122.5,279.5,130.2,271.8C5964.8,1974.9,6016.5,1898.4,6073.9,1814.1z M1445.2,1429.4c197.2-80.4,269.9-120.6,281.4-151.2c26.8-72.7,93.8-507.3,116.8-765.7c38.3-423-9.6-1125.6-103.4-1493.1l-23-95.7l-285.2-118.7c-157-67-287.1-118.7-289.1-116.8c-3.8,3.8,9.6,130.2,28.7,283.3c74.7,585.8,93.8,1175.4,57.4,1703.7c-21.1,294.8-70.8,763.8-90,840.4c-9.6,34.5-3.8,44,15.3,36.4C1169.5,1546.1,1299.7,1490.6,1445.2,1429.4z M8859.2,1475.3c-132.1-911.2-134-1713.3-9.6-2626.4c9.6-82.3,15.3-153.1,11.5-157c-3.8-3.8-135.9,45.9-292.9,111l-283.3,120.6l-24.9,86.1c-13.4,47.9-44,206.7-67,354.1c-59.3,384.8-59.3,1123.7,0,1512.3c23,147.4,53.6,306.3,67,354.1l24.9,86.1l275.7,118.7c153.1,65.1,285.2,118.7,294.8,118.7C8863,1555.7,8866.8,1519.3,8859.2,1475.3z M2611,948.9c40.2-11.5,122.5-340.7,153.1-625.9c26.8-241.2,5.7-493.9-70.8-813.6l-49.8-202.9l-281.4-116.8c-155.1-63.2-283.3-114.9-287.1-112.9c-3.8,3.8,13.4,128.3,36.4,279.5c61.3,396.2,63.2,1129.4,1.9,1519.9c-23,147.4-42.1,273.7-42.1,281.4c0,7.7,114.9-34.4,254.6-93.8C2463.6,1006.3,2593.8,954.6,2611,948.9z M7886.7,893.4c-59.3-384.8-59.3-1162,0-1546.7c23-147.4,40.2-269.9,36.4-271.8c-1.9-1.9-130.2,49.8-285.2,114.9l-281.4,116.8l-28.7,105.3c-134,490.1-134,920.8,0,1416.6l28.7,105.3l281.4,116.8c155.1,65.1,283.3,116.8,285.2,114.9C7926.9,1163.3,7909.7,1040.8,7886.7,893.4z M5000,1115.4c57.4,0,137.8,7.7,178,17.2c38.3,9.6,70.8,11.5,70.8,3.8c0-24.9-237.4-595.4-248.9-595.4c-11.5,0-248.9,570.4-248.9,595.4c0,7.6,32.5,5.7,72.7-3.8C4862.2,1123.1,4942.6,1115.4,5000,1115.4z M4582.7,726.8c143.6-350.3,135.9-321.6,86.1-302.5c-118.7,47.9-514.9,212.5-541.7,227.8c-24.9,13.4-13.4,28.7,68.9,90c53.6,40.2,134,118.7,176.1,176.1C4464,1038.8,4446.8,1056.1,4582.7,726.8z M5706.4,826.4c49.8-47.9,112.9-103.4,143.6-124.4l53.6-38.3l-235.5-99.5c-130.2-53.6-269.9-111-308.2-128.3l-72.7-28.7l38.3,93.8c19.1,51.7,76.6,191.4,126.3,310.1l90,214.4l40.2-55.5C5603,939.3,5658.5,876.1,5706.4,826.4z M3305.9,657.9l268-109.1l57.4-143.6c78.5-197.2,78.5-373.3,0-570.4L3573.9-305l-273.7-114.9c-151.2-63.2-279.5-109.1-283.3-105.3c-5.7,5.8,5.7,86.1,24.9,178c44,225.9,44,717.9,0,936.1c-36.4,174.2-38.3,181.9-17.2,181.9C3032.1,768.9,3158.5,719.2,3305.9,657.9z M6983.2,709.6c-78.5-375.2-84.2-740.8-21-1066.2c17.2-88.1,26.8-162.7,23-168.5c-5.7-3.8-132.1,42.1-281.4,103.4c-302.5,122.5-304.4,126.3-371.4,348.4C6292.1,66.4,6294,187,6340,332.5c65.1,206.7,65.1,206.7,358,327.3c145.5,61.3,271.8,109.1,281.4,111C6988.9,770.8,6988.9,742.1,6983.2,709.6z M4578.9,120c0-5.7-137.8-67-306.3-135.9l-306.3-126.4l13.4,68.9c19.1,88.1,19.1,298.6,0,386.7l-13.4,70.8l306.3-126.3C4441,187,4578.9,125.7,4578.9,120z M6012.7,298c-9.6-40.2-17.2-120.6-17.2-178c0-57.4,7.7-137.8,17.2-176.1c9.6-40.2,11.5-72.7,3.8-72.7c-24.9,0-595.3,237.4-595.3,248.9c0,11.5,551.3,245,585.8,246.9C6024.1,368.8,6024.1,347.8,6012.7,298z M4695.6-209.3c-45.9-120.6-212.5-516.9-227.8-543.6c-13.4-24.9-28.7-13.4-86.1,65.1c-38.3,53.6-116.8,132.1-176.1,178c-57.4,44-101.5,84.2-97.6,88c7.7,7.7,585.8,252.7,599.2,254.6C4709-167.1,4705.2-186.3,4695.6-209.3z M5606.8-297.3c325.4-134,308.2-116.8,195.2-201C5750.4-538.5,5670-617,5626-674.4c-61.3-80.4-82.3-97.6-95.7-74.6c-13.4,24.9-181.9,425-225.9,537.9C5285.2-161.4,5256.5-153.7,5606.8-297.3z M5135.9-607.4l126.4-306.3l-68.9,13.4C5155-890.7,5068.9-885,5000-885c-68.9,0-155.1-5.7-193.3-15.3l-68.9-13.4l126.3,306.3C4933-439,4994.3-301.1,5000-301.1C5005.7-301.1,5067-439,5135.9-607.4z M3954.8-710.8c45.9-26.8,111-80.4,145.5-120.6c72.7-82.3,178-294.8,176.1-356c0-32.5-201-539.8-222.1-562.8c-3.8-3.8-55.5,70.8-116.8,162.7c-145.5,212.5-432.6,499.6-645.1,645.1c-91.9,61.3-164.6,114.9-162.7,118.7c3.8,1.9,130.2,55.5,281.4,118.7l277.6,112.9l90-34.5C3828.5-645.7,3908.9-684,3954.8-710.8z M6565.9-695.5c143.6-59.3,273.7-112.9,287.1-120.6c15.3-9.6-36.4-53.6-143.6-126.4c-216.3-145.5-501.5-430.7-647-647c-72.7-107.2-116.8-158.9-126.4-143.6c-7.6,13.4-61.2,143.6-120.6,287.1c-103.4,256.5-105.3,262.3-80.4,336.9c57.4,162.7,158.9,300.5,285.2,390.5c44,32.5,248.9,126.3,277.6,130.2C6299.8-588.3,6420.4-636.1,6565.9-695.5z M2909.6-1061.1c417.3-252.7,681.5-520.7,939.9-960.9l55.5-93.8l-114.9-279.5c-65.1-153.1-122.5-279.5-128.3-279.5c-5.7,0-32.5,32.5-59.3,70.8c-279.5,415.4-819.3,962.9-1257.7,1274.9c-76.6,55.5-139.7,105.3-139.7,111c0,7.6,377.1,176.1,551.3,245C2758.4-971.1,2827.3-1011.3,2909.6-1061.1z M7523-1093.6c149.3-61.3,271.8-116.8,271.8-124.4c-1.9-5.8-47.9-44-105.3-84.2c-417.3-289-951.4-819.3-1244.3-1234.7c-51.7-74.7-101.5-135.9-107.2-137.8c-5.8,0-63.2,126.4-128.3,281.4L6093-2112l68.9,114.9c191.4,319.7,457.5,622.1,685.3,779.1c160.8,109.1,382.9,246.9,394.3,241.2C7247.4-978.8,7373.7-1030.5,7523-1093.6z M5285.2-1250.6l143.6-55.5l111-273.7c63.2-151.2,109.1-279.5,105.3-285.2c-5.8-3.8-86.1,7.7-178,24.9c-235.4,47.9-702.5,47.9-934.2,1.9c-91.9-19.2-172.3-30.6-178-26.8c-9.6,11.5,199.1,530.3,224,555.1c7.7,9.6,86.1,42.1,174.2,72.8C4950.2-1166.4,5076.6-1170.2,5285.2-1250.6z M2031-1482.2C2565-1851.7,3028.3-2315,3397.8-2849l128.3-183.8l-120.6-289.1c-65.1-160.8-124.4-291-130.2-291c-5.7,0-51.7,57.4-105.3,130.2C2760.3-2923.7,2052-2207.7,1458.6-1756c-99.5,74.7-183.8,143.6-185.7,149.3c-3.8,9.6,513,239.3,566.6,250.8C1843.4-1354,1929.5-1411.4,2031-1482.2z M8453.3-1478.4c153.1-63.2,279.5-118.7,279.5-124.4c0-5.7-114.9-101.5-252.7-210.6C7842.7-2315,7435-2722.7,6933.4-3358.2c-109.1-139.7-204.8-254.6-210.6-254.6c-5.7,0-63.2,130.2-128.3,289l-118.7,289.1l114.9,170.4c352.2,524.5,836.5,1012.7,1376.4,1384c99.5,68.9,187.6,122.5,193.3,120.6C8168.1-1361.6,8300.2-1415.3,8453.3-1478.4z M5377.1-2138.8c124.4-21.1,273.7-51.7,331.2-68.9l105.3-28.7l116.8-281.4c65.1-155.1,114.9-283.3,112.9-287.1c-1.9-1.9-84.2,7.6-183.8,23c-568.5,90-1150.5,90-1719,0c-99.5-15.3-181.9-24.9-183.8-23c-1.9,3.8,47.9,132.1,112.9,287.1c132.1,319.7,91.9,287.1,442.2,358C4848.8-2091,5061.3-2085.2,5377.1-2138.8z M5746.6-3074.9c141.7-23,300.5-51.7,354.1-65.1l95.7-23l118.7-285.2c67-157,118.7-287.1,116.8-289c-3.8-3.8-130.2,9.6-283.3,28.7c-781,99.5-1516.1,99.5-2297.1,0c-153.1-19.1-279.5-32.5-283.3-30.6c-1.9,3.8,49.8,132.1,114.9,287.1c88,210.6,128.3,287.1,158.9,298.6c59.3,23,484.3,91.9,689.1,112.9C4804.7-3011.7,5447.9-3030.9,5746.6-3074.9z"/></g></g>
</svg>